<?xml version="1.0" encoding="utf-8"?>
<!-- Generator: Adobe Illustrator 25.1.0, SVG Export Plug-In . SVG Version: 6.00 Build 0)  -->
<svg version="1.1" id="레이어_1" xmlns="http://www.w3.org/2000/svg" xmlns:xlink="http://www.w3.org/1999/xlink" x="0px" y="0px" viewBox="0 0 200 100" style="enable-background:new 0 0 200 100;" xml:space="preserve">
<style type="text/css">
	.st0{
		fill:none;
		stroke:#FF0000;
		stroke-miterlimit:10;
		stroke-dasharray: 1000;
		stroke-dashoffset: 1100;
		animation: dash 5s linear forwards;}

	@keyframes dash{
		to{
			stroke-dashoffset: 0;
		}
	}

	.st1{
		fill:none;
		stroke:#000000; 
		stroke-miterlimit:10;
		stroke-dasharray: 1000;
		stroke-dashoffset: 1100;
		animation: dash 5s linear forwards;
		}
</style>
<path class="st0" d="M27.5,81.11c15.94,0.45,49.33-0.8,85.09-19.81c28.27-15.03,45.9-34.71,55.18-46.8"/>
<polyline class="st1" points="27,89.78 178,89.78 178,14 "/>
<line class="st1" x1="27.5" y1="87.18" x2="27.5" y2="89.78"/>
<line class="st1" x1="42.5" y1="87.18" x2="42.5" y2="89.78"/>
<line class="st1" x1="57.5" y1="87.18" x2="57.5" y2="89.78"/>
<line class="st1" x1="72.5" y1="87.18" x2="72.5" y2="89.78"/>
<line class="st1" x1="87.5" y1="87.18" x2="87.5" y2="89.78"/>
<line class="st1" x1="102.5" y1="87.18" x2="102.5" y2="89.78"/>
<line class="st1" x1="117.5" y1="87.18" x2="117.5" y2="89.78"/>
<line class="st1" x1="132.5" y1="87.18" x2="132.5" y2="89.78"/>
<line class="st1" x1="147.5" y1="87.18" x2="147.5" y2="89.78"/>
<line class="st1" x1="162.5" y1="87.18" x2="162.5" y2="89.78"/>
<line class="st1" x1="175" y1="14.99" x2="177.6" y2="14.99"/>
<line class="st1" x1="175" y1="29.99" x2="177.6" y2="29.99"/>
<line class="st1" x1="175" y1="44.99" x2="177.6" y2="44.99"/>
<line class="st1" x1="175" y1="59.99" x2="177.6" y2="59.99"/>
<line class="st1" x1="175" y1="74.99" x2="177.6" y2="74.99"/>
</svg>
